<?xml version="1.0" standalone="no"?>
<!DOCTYPE svg PUBLIC "-//W3C//DTD SVG 20010904//EN"
 "http://www.w3.org/TR/2001/REC-SVG-20010904/DTD/svg10.dtd">
<svg version="1.0" xmlns="http://www.w3.org/2000/svg"
 width="534.000000pt" height="534.000000pt" viewBox="0 0 534.000000 534.000000"
 preserveAspectRatio="xMidYMid meet">
<metadata>
Created by potrace 1.14, written by Peter Selinger 2001-2017
</metadata>
<g transform="translate(0.000000,534.000000) scale(0.100000,-0.100000)"
fill="#000000" stroke="none">
<path d="M2360 5029 c-593 -61 -1154 -322 -1525 -710 -225 -235 -397 -528
-491 -835 -14 -47 -31 -87 -37 -89 -7 -2 -42 -7 -80 -10 l-67 -7 2 -176 3
-176 40 -8 40 -8 -4 -231 c-8 -534 77 -884 319 -1313 104 -186 327 -431 530
-583 767 -574 1892 -660 2772 -212 673 343 1086 943 1190 1724 8 61 13 198 12
352 l0 252 29 11 c17 5 41 10 53 10 l24 0 0 179 0 179 -52 7 c-29 3 -72 8 -94
11 l-42 6 -37 111 c-149 451 -434 829 -824 1096 -343 234 -748 376 -1200 421
-120 12 -439 11 -561 -1z m672 -128 c454 -83 840 -280 1167 -596 178 -173 311
-350 424 -565 43 -80 137 -296 137 -313 0 -1 -280 -2 -623 -2 -512 0 -654 -3
-802 -18 -357 -34 -444 -39 -675 -39 -234 1 -295 4 -650 39 -156 15 -286 18
-823 18 -350 0 -637 1 -637 2 0 11 88 218 115 273 275 546 764 960 1339 1134
250 76 398 96 686 92 176 -3 251 -8 342 -25z m-310 -1971 c101 -28 169 -145
198 -337 33 -216 118 -383 267 -524 180 -170 424 -264 750 -290 344 -28 610
42 795 209 l38 34 -26 -68 c-127 -337 -299 -602 -549 -842 -156 -151 -280
-239 -458 -326 -184 -90 -307 -136 -481 -181 -273 -69 -465 -90 -766 -82 -237
6 -320 16 -449 53 -660 188 -1205 685 -1454 1324 -67 172 -67 170 3 101 109
-107 259 -180 440 -212 103 -18 389 -16 510 4 403 68 686 266 810 567 26 64
40 115 76 295 43 214 152 315 296 275z"/>
<path d="M3914 4300 c-143 -29 -346 -160 -508 -331 -80 -83 -90 -108 -65 -163
15 -31 72 -60 105 -52 13 4 86 49 163 100 194 132 326 196 403 196 51 0 88
-35 164 -151 34 -53 73 -104 85 -113 24 -16 74 -21 104 -10 20 8 45 56 45 88
0 34 -45 157 -87 239 -83 159 -234 231 -409 197z"/>
<path d="M1215 3966 c-79 -25 -151 -70 -216 -135 -82 -82 -134 -177 -125 -230
7 -44 46 -81 87 -81 40 0 52 8 133 84 80 76 152 115 227 122 59 6 94 -3 229
-60 171 -71 322 -92 440 -61 182 47 282 175 201 256 -41 40 -82 39 -145 -6
-46 -32 -55 -35 -122 -35 -86 0 -169 24 -303 87 -53 25 -118 52 -146 59 -62
17 -206 17 -260 0z"/>
<path d="M2134 1531 c-59 -27 -87 -72 -92 -146 -3 -50 0 -66 20 -95 13 -19 39
-45 57 -57 l34 -23 509 0 c560 0 537 -2 595 63 53 61 52 151 -3 217 -51 60
-48 60 -588 60 -457 0 -494 -2 -532 -19z"/>
</g>
</svg>
